<svg xmlns="http://www.w3.org/2000/svg" viewBox="0 0 64 64" role="img" aria-label="Salesforce Skills icon">
  <rect width="64" height="64" rx="16" fill="#00A1E0"/>
  <path d="M22 37c0-5.2 4.2-9.4 9.4-9.4 1.8-4.2 5.9-7.1 10.8-7.1 6.5 0 11.8 5.3 11.8 11.8v.5c3 1 5.1 3.8 5.1 7 0 4.1-3.4 7.5-7.5 7.5H29.5C25.4 47.3 22 43.8 22 39.7V37Z" fill="#ffffff"/>
  <path d="M17 38.2c0-3.4 2.8-6.2 6.2-6.2.8 0 1.6.2 2.3.4 1.2-2.8 3.9-4.8 7.1-4.8 1 0 2 .2 2.9.6-2.4 1.3-4.1 3.6-4.6 6.4h-1.4c-3.6 0-6.5 2.9-6.5 6.5 0 2.4 1.3 4.5 3.2 5.7h-2C20.3 46.8 17 43 17 38.2Z" fill="#d6f3ff"/>
</svg>
